<svg width="1646" height="561" viewBox="0 0 1646 561" fill="none" xmlns="http://www.w3.org/2000/svg">
<g clip-path="url(#clip0_535_171)">
<path d="M0.218839 67.5365L261.769 68.5411C267.263 68.5622 271.712 73.0126 271.73 78.5072L272.638 346.979C272.657 352.53 268.151 357.034 262.6 357.013L168.848 356.653C166.561 356.644 164.34 357.42 162.555 358.851L55.7375 444.486C53.9528 445.917 51.7315 446.692 49.4441 446.684L1.4996 446.499" stroke="#E5DFEF" stroke-width="2"/>
<path d="M1646.81 85.0797L1353.56 85.8591C1348.01 85.8738 1343.53 90.403 1343.59 95.9513L1346.07 364.918C1346.12 370.452 1350.65 374.893 1356.19 374.825L1458.64 373.567C1460.8 373.541 1462.91 374.214 1464.65 375.486L1581.66 460.783C1583.38 462.035 1585.45 462.708 1587.58 462.702L1645.5 462.548" stroke="#E5DFEF" stroke-width="2"/>
<rect x="806" y="509" width="3" height="5" rx="0.2" fill="#D9D9D9"/>
<rect x="816" y="509" width="3" height="5" rx="0.2" fill="#D9D9D9"/>
<rect x="826" y="509" width="3" height="5" rx="0.2" fill="#D9D9D9"/>
<rect x="842" y="528" width="3" height="5" rx="0.2" transform="rotate(-90 842 528)" fill="#D9D9D9"/>
<rect x="842" y="523" width="3" height="5" rx="0.2" transform="rotate(-90 842 523)" fill="#D9D9D9"/>
<rect x="787" y="523" width="3" height="5" rx="0.2" transform="rotate(-90 787 523)" fill="#D9D9D9"/>
<rect x="787" y="528" width="3" height="5" rx="0.2" transform="rotate(-90 787 528)" fill="#D9D9D9"/>
<rect x="806" y="534" width="3" height="5" rx="0.2" fill="#D9D9D9"/>
<rect x="816" y="534" width="3" height="5" rx="0.2" fill="#D9D9D9"/>
<rect x="826" y="534" width="3" height="5" rx="0.2" fill="#D9D9D9"/>
<g filter="url(#filter0_d_535_171)">
<rect x="792" y="514" width="50" height="20" rx="2" fill="#E4F0EF"/>
</g>
<g filter="url(#filter1_d_535_171)">
<path d="M800 519C800 518.448 800.448 518 801 518H834C834.552 518 835 518.448 835 519V529C835 529.552 834.552 530 834 530H801C800.448 530 800 529.552 800 529V519Z" fill="#E4F0EF"/>
<path d="M800 519C800 518.172 800.672 517.5 801.5 517.5H833.5C834.328 517.5 835 518.172 835 519C835 518.724 834.552 518.5 834 518.5H801C800.448 518.5 800 518.724 800 519ZM835 529C835 529.828 834.328 530.5 833.5 530.5H801.5C800.672 530.5 800 529.828 800 529C800 529.276 800.448 529.5 801 529.5H834C834.552 529.5 835 529.276 835 529ZM800 530V518V530ZM835 518V530V518Z" fill="#F8F8F8"/>
</g>
<rect x="806" y="509" width="3" height="5" rx="0.2" fill="#D9D9D9"/>
<rect x="816" y="509" width="3" height="5" rx="0.2" fill="#D9D9D9"/>
<rect x="826" y="509" width="3" height="5" rx="0.2" fill="#D9D9D9"/>
<rect x="842" y="528" width="3" height="5" rx="0.2" transform="rotate(-90 842 528)" fill="#D9D9D9"/>
<rect x="842" y="523" width="3" height="5" rx="0.2" transform="rotate(-90 842 523)" fill="#D9D9D9"/>
<rect x="787" y="523" width="3" height="5" rx="0.2" transform="rotate(-90 787 523)" fill="#D9D9D9"/>
<rect x="787" y="528" width="3" height="5" rx="0.2" transform="rotate(-90 787 528)" fill="#D9D9D9"/>
<rect x="806" y="534" width="3" height="5" rx="0.2" fill="#D9D9D9"/>
<rect x="816" y="534" width="3" height="5" rx="0.2" fill="#D9D9D9"/>
<rect x="826" y="534" width="3" height="5" rx="0.2" fill="#D9D9D9"/>
<g filter="url(#filter2_d_535_171)">
<rect x="792" y="514" width="50" height="20" rx="2" fill="#E4F0EF"/>
</g>
<g filter="url(#filter3_d_535_171)">
<path d="M800 519C800 518.448 800.448 518 801 518H834C834.552 518 835 518.448 835 519V529C835 529.552 834.552 530 834 530H801C800.448 530 800 529.552 800 529V519Z" fill="#E4F0EF"/>
<path d="M800 519C800 518.172 800.672 517.5 801.5 517.5H833.5C834.328 517.5 835 518.172 835 519C835 518.724 834.552 518.5 834 518.5H801C800.448 518.5 800 518.724 800 519ZM835 529C835 529.828 834.328 530.5 833.5 530.5H801.5C800.672 530.5 800 529.828 800 529C800 529.276 800.448 529.5 801 529.5H834C834.552 529.5 835 529.276 835 529ZM800 530V518V530ZM835 518V530V518Z" fill="#F8F8F8"/>
</g>
<rect x="784.75" y="95.9473" width="6.17308" height="11.0526" rx="0.2" fill="#D9D9D9"/>
<rect x="805.327" y="95.9473" width="6.17308" height="11.0526" rx="0.2" fill="#D9D9D9"/>
<rect x="825.904" y="95.9473" width="6.17307" height="11.0526" rx="0.2" fill="#D9D9D9"/>
<rect x="858.827" y="137.947" width="6.63158" height="10.2885" rx="0.2" transform="rotate(-90 858.827 137.947)" fill="#D9D9D9"/>
<rect x="858.827" y="126.895" width="6.63158" height="10.2885" rx="0.2" transform="rotate(-90 858.827 126.895)" fill="#D9D9D9"/>
<rect x="745.654" y="126.895" width="6.63158" height="10.2885" rx="0.2" transform="rotate(-90 745.654 126.895)" fill="#D9D9D9"/>
<rect x="745.654" y="137.947" width="6.63158" height="10.2885" rx="0.2" transform="rotate(-90 745.654 137.947)" fill="#D9D9D9"/>
<rect x="784.75" y="151.21" width="6.17308" height="11.0526" rx="0.2" fill="#D9D9D9"/>
<rect x="805.327" y="151.21" width="6.17308" height="11.0526" rx="0.2" fill="#D9D9D9"/>
<rect x="825.904" y="151.21" width="6.17307" height="11.0526" rx="0.2" fill="#D9D9D9"/>
<g filter="url(#filter4_d_535_171)">
<rect x="755.942" y="107" width="102.885" height="44.2105" rx="3" fill="#E4F0EF"/>
</g>
<g filter="url(#filter5_d_535_171)">
<path d="M772.404 118.842C772.404 117.185 773.747 115.842 775.404 115.842H841.424C843.08 115.842 844.424 117.185 844.424 118.842V139.369C844.424 141.025 843.08 142.369 841.424 142.369H775.404C773.747 142.369 772.404 141.025 772.404 139.369V118.842Z" fill="#E4F0EF"/>
<path d="M772.404 118.842C772.404 116.909 773.971 115.342 775.904 115.342H840.924C842.857 115.342 844.424 116.909 844.424 118.842C844.424 117.462 843.08 116.342 841.424 116.342H775.404C773.747 116.342 772.404 117.462 772.404 118.842ZM844.424 139.369C844.424 141.302 842.857 142.869 840.924 142.869H775.904C773.971 142.869 772.404 141.302 772.404 139.369C772.404 140.749 773.747 141.869 775.404 141.869H841.424C843.08 141.869 844.424 140.749 844.424 139.369ZM772.404 142.369V115.842V142.369ZM844.424 115.842V142.369V115.842Z" fill="#F8F8F8"/>
</g>
<rect x="363.5" y="366.474" width="2.65385" height="5.52632" rx="0.2" fill="#D9D9D9"/>
<rect x="372.346" y="366.474" width="2.65385" height="5.52632" rx="0.2" fill="#D9D9D9"/>
<rect x="381.192" y="366.474" width="2.65384" height="5.52632" rx="0.2" fill="#D9D9D9"/>
<rect x="395.346" y="387.474" width="3.31579" height="4.42308" rx="0.2" transform="rotate(-90 395.346 387.474)" fill="#D9D9D9"/>
<rect x="395.346" y="381.947" width="3.31579" height="4.42308" rx="0.2" transform="rotate(-90 395.346 381.947)" fill="#D9D9D9"/>
<rect x="346.692" y="381.947" width="3.31579" height="4.42308" rx="0.2" transform="rotate(-90 346.692 381.947)" fill="#D9D9D9"/>
<rect x="346.692" y="387.474" width="3.31579" height="4.42308" rx="0.2" transform="rotate(-90 346.692 387.474)" fill="#D9D9D9"/>
<rect x="363.5" y="394.105" width="2.65385" height="5.52632" rx="0.2" fill="#D9D9D9"/>
<rect x="372.346" y="394.105" width="2.65385" height="5.52632" rx="0.2" fill="#D9D9D9"/>
<rect x="381.192" y="394.105" width="2.65384" height="5.52632" rx="0.2" fill="#D9D9D9"/>
<g filter="url(#filter6_d_535_171)">
<rect x="351.115" y="372" width="44.2308" height="22.1053" rx="3" fill="#E4F0EF"/>
</g>
<g filter="url(#filter7_d_535_171)">
<path d="M358.192 379.421C358.192 377.764 359.536 376.421 361.192 376.421H386.154C387.811 376.421 389.154 377.764 389.154 379.421V386.684C389.154 388.341 387.811 389.684 386.154 389.684H361.192C359.536 389.684 358.192 388.341 358.192 386.684V379.421Z" fill="#E4F0EF"/>
<path d="M358.192 379.421C358.192 377.488 359.759 375.921 361.692 375.921H385.654C387.587 375.921 389.154 377.488 389.154 379.421C389.154 378.04 387.811 376.921 386.154 376.921H361.192C359.536 376.921 358.192 378.04 358.192 379.421ZM389.154 386.684C389.154 388.617 387.587 390.184 385.654 390.184H361.692C359.759 390.184 358.192 388.617 358.192 386.684C358.192 388.065 359.536 389.184 361.192 389.184H386.154C387.811 389.184 389.154 388.065 389.154 386.684ZM358.192 389.684V376.421V389.684ZM389.154 376.421V389.684V376.421Z" fill="#F8F8F8"/>
</g>
<rect x="1231.5" y="361.474" width="2.65385" height="5.52632" rx="0.2" fill="#D9D9D9"/>
<rect x="1240.35" y="361.474" width="2.65385" height="5.52632" rx="0.2" fill="#D9D9D9"/>
<rect x="1249.19" y="361.474" width="2.65384" height="5.52632" rx="0.2" fill="#D9D9D9"/>
<rect x="1263.35" y="382.474" width="3.31579" height="4.42308" rx="0.2" transform="rotate(-90 1263.35 382.474)" fill="#D9D9D9"/>
<rect x="1263.35" y="376.947" width="3.31579" height="4.42308" rx="0.2" transform="rotate(-90 1263.35 376.947)" fill="#D9D9D9"/>
<rect x="1214.69" y="376.947" width="3.31579" height="4.42308" rx="0.2" transform="rotate(-90 1214.69 376.947)" fill="#D9D9D9"/>
<rect x="1214.69" y="382.474" width="3.31579" height="4.42308" rx="0.2" transform="rotate(-90 1214.69 382.474)" fill="#D9D9D9"/>
<rect x="1231.5" y="389.105" width="2.65385" height="5.52632" rx="0.2" fill="#D9D9D9"/>
<rect x="1240.35" y="389.105" width="2.65385" height="5.52632" rx="0.2" fill="#D9D9D9"/>
<rect x="1249.19" y="389.105" width="2.65384" height="5.52632" rx="0.2" fill="#D9D9D9"/>
<g filter="url(#filter8_d_535_171)">
<rect x="1219.12" y="367" width="44.2308" height="22.1053" rx="3" fill="#E4F0EF"/>
</g>
<g filter="url(#filter9_d_535_171)">
<path d="M1226.19 374.421C1226.19 372.764 1227.54 371.421 1229.19 371.421H1254.15C1255.81 371.421 1257.15 372.764 1257.15 374.421V381.684C1257.15 383.341 1255.81 384.684 1254.15 384.684H1229.19C1227.54 384.684 1226.19 383.341 1226.19 381.684V374.421Z" fill="#E4F0EF"/>
<path d="M1226.19 374.421C1226.19 372.488 1227.76 370.921 1229.69 370.921H1253.65C1255.59 370.921 1257.15 372.488 1257.15 374.421C1257.15 373.04 1255.81 371.921 1254.15 371.921H1229.19C1227.54 371.921 1226.19 373.04 1226.19 374.421ZM1257.15 381.684C1257.15 383.617 1255.59 385.184 1253.65 385.184H1229.69C1227.76 385.184 1226.19 383.617 1226.19 381.684C1226.19 383.065 1227.54 384.184 1229.19 384.184H1254.15C1255.81 384.184 1257.15 383.065 1257.15 381.684ZM1226.19 384.684V371.421V384.684ZM1257.15 371.421V384.684V371.421Z" fill="#F8F8F8"/>
</g>
<line x1="817.75" y1="539" x2="817.75" y2="561" stroke="#E5DFEF" stroke-width="1.5"/>
<line x1="827.75" y1="539" x2="827.75" y2="561" stroke="#E5DFEF" stroke-width="1.5"/>
<line x1="807.75" y1="539" x2="807.75" y2="561" stroke="#E5DFEF" stroke-width="1.5"/>
<path d="M667.5 522L720 548.75L751 548.75L808 548.75" stroke="#E5DFEF" stroke-width="1.5"/>
<path d="M751.506 549.244L751.5 528.501C751.5 527.396 752.396 526.5 753.501 526.5L787.002 526.509" stroke="#E5DFEF" stroke-width="1.5"/>
<path d="M885.068 548.495L884.766 528C884.749 526.896 883.841 526.014 882.737 526.03L847.002 526.538" stroke="#E5DFEF" stroke-width="1.5"/>
<path d="M826.995 548.778L930.945 549.656L979 516.5" stroke="#E5DFEF" stroke-width="1.5"/>
<path d="M667.5 560.5V521.5L703.5 503.5H764V521.5H787" stroke="#E5DFEF" stroke-width="1.5"/>
<path d="M979 561V516.5L950.5 503H870V521.5H847" stroke="#E5DFEF" stroke-width="1.5"/>
<path d="M723 456.5L763.5 481.5L807.5 481.5L807.5 509" stroke="#E5DFEF" stroke-width="1.5"/>
<line x1="817.75" y1="479" x2="817.75" y2="509" stroke="#E5DFEF" stroke-width="1.5"/>
<path d="M919 456.5L871 481L827.5 481L827.5 509" stroke="#E5DFEF" stroke-width="1.5"/>
<path d="M439.5 457H724.023" stroke="#E5DFEF" stroke-width="2"/>
<path d="M365 367V250.5" stroke="#E5DFEF"/>
<path d="M1233 362V248" stroke="#E5DFEF"/>
<path d="M364 348H317V380.5H346.5" stroke="#E5DFEF"/>
<path d="M1232 343H1185V375H1214.5" stroke="#E5DFEF"/>
<path d="M384 348H432V380H399.086" stroke="#E5DFEF"/>
<path d="M1252 343H1300V375H1267.09" stroke="#E5DFEF"/>
<path d="M374 367V250.5" stroke="#E5DFEF"/>
<path d="M1242 362V248" stroke="#E5DFEF"/>
<path d="M373 501L374 400" stroke="#E5DFEF"/>
<path d="M1241 494L1241.98 394.622" stroke="#E5DFEF"/>
<path d="M294 386H347" stroke="#E5DFEF"/>
<path d="M1161 381H1215" stroke="#E5DFEF"/>
<path d="M400 386H450" stroke="#E5DFEF"/>
<path d="M1268 381H1327" stroke="#E5DFEF"/>
<path d="M383 367V250.5" stroke="#E5DFEF"/>
<path d="M1251 362V247.5" stroke="#E5DFEF"/>
<path d="M918 457H1173" stroke="#E5DFEF" stroke-width="2"/>
<g filter="url(#filter10_d_535_171)">
<rect x="661" y="511" width="20" height="20" rx="2" fill="#D9D9D9"/>
</g>
<g filter="url(#filter11_d_535_171)">
<rect x="666" y="516" width="10" height="10" rx="2" fill="white"/>
</g>
<path d="M643.999 115.5L464.999 115.5C456.715 115.5 449.999 122.216 449.999 130.5L449.999 437.939C449.999 441.527 448.713 444.996 446.374 447.717L405.488 495.278C402.639 498.593 398.485 500.5 394.114 500.5L310 500.5C301.716 500.5 295 493.784 295 485.5L295 328.042C295 325.08 295.877 322.185 297.52 319.721L339.547 256.68C342.329 252.507 347.012 250 352.027 250L449.999 250" stroke="#E5DFEF"/>
<path d="M969.5 114H1143.88C1152.13 114 1158.83 120.657 1158.88 128.903L1160.86 436.384C1160.89 440.156 1162.33 443.78 1164.91 446.534L1209.5 494.21C1212.35 497.264 1216.35 498.987 1220.54 498.963L1312.99 498.448C1321.28 498.402 1327.96 491.641 1327.9 483.352L1326.89 326.047C1326.87 322.914 1325.87 319.866 1324.03 317.331L1278.17 254.155C1275.35 250.268 1270.84 247.967 1266.03 247.967H1159.65" stroke="#E5DFEF"/>
<path d="M644.5 80V342C644.5 347.523 640.023 352 634.5 352H453.5" stroke="#E5DFEF"/>
<path d="M661 0L667.028 37.032C667.626 40.7014 670.209 43.7365 673.736 44.9121L712.96 57.9868C713.98 58.3267 715.048 58.5 716.123 58.5L778.5 58.5C784.023 58.5 788.5 62.9772 788.5 68.5V96.5" stroke="#E5DFEF"/>
<path d="M965 0L958.526 39.0226C957.916 42.6993 955.312 45.7318 951.769 46.8904L909.448 60.7325C908.445 61.0608 907.395 61.228 906.34 61.228L839 61.228C833.477 61.228 829 65.7051 829 71.228V96" stroke="#E5DFEF"/>
<path d="M969.951 99.0359L969.999 341.677C970 347.199 974.477 351.675 979.999 351.675L1160.26 351.675" stroke="#E5DFEF"/>
<line x1="644" y1="123.5" x2="746" y2="123.5" stroke="#E5DFEF"/>
<path d="M869 123.5H970" stroke="#E5DFEF"/>
<path d="M869 134.5H970" stroke="#E5DFEF"/>
<line x1="644" y1="134.5" x2="746" y2="134.5" stroke="#E5DFEF"/>
<path d="M717 236V183H787.5V173.5V162" stroke="#E5DFEF"/>
<path d="M295.5 444.5L325.3 428.669C326.745 427.901 328.355 427.5 329.991 427.5H355C360.523 427.5 365 423.023 365 417.5V400" stroke="#E5DFEF"/>
<path d="M1175 455.5L1185.74 434.028C1187.43 430.64 1190.89 428.5 1194.68 428.5H1223C1228.52 428.5 1233 424.023 1233 418.5V395" stroke="#E5DFEF"/>
<path d="M438.5 456.5L420.146 431.303C418.264 428.719 415.26 427.191 412.064 427.191H391C385.477 427.191 381 422.714 381 417.191V400" stroke="#E5DFEF"/>
<path d="M1328 444.5L1306.9 424.254C1305.04 422.467 1302.56 421.469 1299.98 421.469H1259C1253.48 421.469 1249 416.992 1249 411.469V395" stroke="#E5DFEF"/>
<path d="M644.5 236.5H773.11C774.998 236.5 776.848 235.965 778.445 234.958L803.835 218.943C806.739 217.111 808.5 213.918 808.5 210.485V173.5V162" stroke="#E5DFEF"/>
<path d="M970 236H845.301C843.469 236 841.672 235.497 840.107 234.545L813.806 218.559C810.822 216.745 809 213.506 809 210.014V173.423V162" stroke="#E5DFEF"/>
<path d="M829 162V183.5H905.5V236" stroke="#E5DFEF"/>
<line x1="808.5" y1="79" x2="808.5" y2="96.0294" stroke="#E5DFEF"/>
<line x1="789" y1="78.5" x2="829" y2="78.5" stroke="#E5DFEF"/>
<g filter="url(#filter12_d_535_171)">
<rect x="634" y="119" width="20" height="20" rx="2" fill="#D9D9D9"/>
</g>
<g filter="url(#filter13_d_535_171)">
<rect x="639" y="124" width="10" height="10" rx="2" fill="white"/>
</g>
<g filter="url(#filter14_d_535_171)">
<rect x="969" y="506" width="20" height="20" rx="2" fill="#D9D9D9"/>
</g>
<g filter="url(#filter15_d_535_171)">
<rect x="974" y="511" width="10" height="10" rx="2" fill="white"/>
</g>
<g filter="url(#filter16_d_535_171)">
<rect x="960" y="119" width="20" height="20" rx="2" fill="#D9D9D9"/>
</g>
<g filter="url(#filter17_d_535_171)">
<rect x="965" y="124" width="10" height="10" rx="2" fill="white"/>
</g>
</g>
<defs>
<filter id="filter0_d_535_171" x="788" y="514" width="58" height="28" filterUnits="userSpaceOnUse" color-interpolation-filters="sRGB">
<feFlood flood-opacity="0" result="BackgroundImageFix"/>
<feColorMatrix in="SourceAlpha" type="matrix" values="0 0 0 0 0 0 0 0 0 0 0 0 0 0 0 0 0 0 127 0" result="hardAlpha"/>
<feOffset dy="4"/>
<feGaussianBlur stdDeviation="2"/>
<feComposite in2="hardAlpha" operator="out"/>
<feColorMatrix type="matrix" values="0 0 0 0 0 0 0 0 0 0 0 0 0 0 0 0 0 0 0.25 0"/>
<feBlend mode="normal" in2="BackgroundImageFix" result="effect1_dropShadow_535_171"/>
<feBlend mode="normal" in="SourceGraphic" in2="effect1_dropShadow_535_171" result="shape"/>
</filter>
<filter id="filter1_d_535_171" x="794.5" y="516" width="46" height="24" filterUnits="userSpaceOnUse" color-interpolation-filters="sRGB">
<feFlood flood-opacity="0" result="BackgroundImageFix"/>
<feColorMatrix in="SourceAlpha" type="matrix" values="0 0 0 0 0 0 0 0 0 0 0 0 0 0 0 0 0 0 127 0" result="hardAlpha"/>
<feOffset dy="4"/>
<feGaussianBlur stdDeviation="2.75"/>
<feComposite in2="hardAlpha" operator="out"/>
<feColorMatrix type="matrix" values="0 0 0 0 0 0 0 0 0 0 0 0 0 0 0 0 0 0 0.2 0"/>
<feBlend mode="normal" in2="BackgroundImageFix" result="effect1_dropShadow_535_171"/>
<feBlend mode="normal" in="SourceGraphic" in2="effect1_dropShadow_535_171" result="shape"/>
</filter>
<filter id="filter2_d_535_171" x="788" y="514" width="58" height="28" filterUnits="userSpaceOnUse" color-interpolation-filters="sRGB">
<feFlood flood-opacity="0" result="BackgroundImageFix"/>
<feColorMatrix in="SourceAlpha" type="matrix" values="0 0 0 0 0 0 0 0 0 0 0 0 0 0 0 0 0 0 127 0" result="hardAlpha"/>
<feOffset dy="4"/>
<feGaussianBlur stdDeviation="2"/>
<feComposite in2="hardAlpha" operator="out"/>
<feColorMatrix type="matrix" values="0 0 0 0 0 0 0 0 0 0 0 0 0 0 0 0 0 0 0.25 0"/>
<feBlend mode="normal" in2="BackgroundImageFix" result="effect1_dropShadow_535_171"/>
<feBlend mode="normal" in="SourceGraphic" in2="effect1_dropShadow_535_171" result="shape"/>
</filter>
<filter id="filter3_d_535_171" x="794.5" y="516" width="46" height="24" filterUnits="userSpaceOnUse" color-interpolation-filters="sRGB">
<feFlood flood-opacity="0" result="BackgroundImageFix"/>
<feColorMatrix in="SourceAlpha" type="matrix" values="0 0 0 0 0 0 0 0 0 0 0 0 0 0 0 0 0 0 127 0" result="hardAlpha"/>
<feOffset dy="4"/>
<feGaussianBlur stdDeviation="2.75"/>
<feComposite in2="hardAlpha" operator="out"/>
<feColorMatrix type="matrix" values="0 0 0 0 0 0 0 0 0 0 0 0 0 0 0 0 0 0 0.2 0"/>
<feBlend mode="normal" in2="BackgroundImageFix" result="effect1_dropShadow_535_171"/>
<feBlend mode="normal" in="SourceGraphic" in2="effect1_dropShadow_535_171" result="shape"/>
</filter>
<filter id="filter4_d_535_171" x="745.942" y="101" width="122.885" height="64.2104" filterUnits="userSpaceOnUse" color-interpolation-filters="sRGB">
<feFlood flood-opacity="0" result="BackgroundImageFix"/>
<feColorMatrix in="SourceAlpha" type="matrix" values="0 0 0 0 0 0 0 0 0 0 0 0 0 0 0 0 0 0 127 0" result="hardAlpha"/>
<feMorphology radius="1" operator="dilate" in="SourceAlpha" result="effect1_dropShadow_535_171"/>
<feOffset dy="4"/>
<feGaussianBlur stdDeviation="4.5"/>
<feComposite in2="hardAlpha" operator="out"/>
<feColorMatrix type="matrix" values="0 0 0 0 0 0 0 0 0 0 0 0 0 0 0 0 0 0 0.25 0"/>
<feBlend mode="normal" in2="BackgroundImageFix" result="effect1_dropShadow_535_171"/>
<feBlend mode="normal" in="SourceGraphic" in2="effect1_dropShadow_535_171" result="shape"/>
</filter>
<filter id="filter5_d_535_171" x="757.404" y="104.342" width="102.02" height="57.5264" filterUnits="userSpaceOnUse" color-interpolation-filters="sRGB">
<feFlood flood-opacity="0" result="BackgroundImageFix"/>
<feColorMatrix in="SourceAlpha" type="matrix" values="0 0 0 0 0 0 0 0 0 0 0 0 0 0 0 0 0 0 127 0" result="hardAlpha"/>
<feMorphology radius="5" operator="dilate" in="SourceAlpha" result="effect1_dropShadow_535_171"/>
<feOffset dy="4"/>
<feGaussianBlur stdDeviation="5"/>
<feComposite in2="hardAlpha" operator="out"/>
<feColorMatrix type="matrix" values="0 0 0 0 0 0 0 0 0 0 0 0 0 0 0 0 0 0 0.25 0"/>
<feBlend mode="normal" in2="BackgroundImageFix" result="effect1_dropShadow_535_171"/>
<feBlend mode="normal" in="SourceGraphic" in2="effect1_dropShadow_535_171" result="shape"/>
</filter>
<filter id="filter6_d_535_171" x="341.115" y="366" width="64.2305" height="42.1055" filterUnits="userSpaceOnUse" color-interpolation-filters="sRGB">
<feFlood flood-opacity="0" result="BackgroundImageFix"/>
<feColorMatrix in="SourceAlpha" type="matrix" values="0 0 0 0 0 0 0 0 0 0 0 0 0 0 0 0 0 0 127 0" result="hardAlpha"/>
<feMorphology radius="1" operator="dilate" in="SourceAlpha" result="effect1_dropShadow_535_171"/>
<feOffset dy="4"/>
<feGaussianBlur stdDeviation="4.5"/>
<feComposite in2="hardAlpha" operator="out"/>
<feColorMatrix type="matrix" values="0 0 0 0 0 0 0 0 0 0 0 0 0 0 0 0 0 0 0.25 0"/>
<feBlend mode="normal" in2="BackgroundImageFix" result="effect1_dropShadow_535_171"/>
<feBlend mode="normal" in="SourceGraphic" in2="effect1_dropShadow_535_171" result="shape"/>
</filter>
<filter id="filter7_d_535_171" x="343.192" y="364.921" width="60.9619" height="44.2632" filterUnits="userSpaceOnUse" color-interpolation-filters="sRGB">
<feFlood flood-opacity="0" result="BackgroundImageFix"/>
<feColorMatrix in="SourceAlpha" type="matrix" values="0 0 0 0 0 0 0 0 0 0 0 0 0 0 0 0 0 0 127 0" result="hardAlpha"/>
<feMorphology radius="5" operator="dilate" in="SourceAlpha" result="effect1_dropShadow_535_171"/>
<feOffset dy="4"/>
<feGaussianBlur stdDeviation="5"/>
<feComposite in2="hardAlpha" operator="out"/>
<feColorMatrix type="matrix" values="0 0 0 0 0 0 0 0 0 0 0 0 0 0 0 0 0 0 0.25 0"/>
<feBlend mode="normal" in2="BackgroundImageFix" result="effect1_dropShadow_535_171"/>
<feBlend mode="normal" in="SourceGraphic" in2="effect1_dropShadow_535_171" result="shape"/>
</filter>
<filter id="filter8_d_535_171" x="1209.12" y="361" width="64.2305" height="42.1055" filterUnits="userSpaceOnUse" color-interpolation-filters="sRGB">
<feFlood flood-opacity="0" result="BackgroundImageFix"/>
<feColorMatrix in="SourceAlpha" type="matrix" values="0 0 0 0 0 0 0 0 0 0 0 0 0 0 0 0 0 0 127 0" result="hardAlpha"/>
<feMorphology radius="1" operator="dilate" in="SourceAlpha" result="effect1_dropShadow_535_171"/>
<feOffset dy="4"/>
<feGaussianBlur stdDeviation="4.5"/>
<feComposite in2="hardAlpha" operator="out"/>
<feColorMatrix type="matrix" values="0 0 0 0 0 0 0 0 0 0 0 0 0 0 0 0 0 0 0.25 0"/>
<feBlend mode="normal" in2="BackgroundImageFix" result="effect1_dropShadow_535_171"/>
<feBlend mode="normal" in="SourceGraphic" in2="effect1_dropShadow_535_171" result="shape"/>
</filter>
<filter id="filter9_d_535_171" x="1211.19" y="359.921" width="60.9619" height="44.2632" filterUnits="userSpaceOnUse" color-interpolation-filters="sRGB">
<feFlood flood-opacity="0" result="BackgroundImageFix"/>
<feColorMatrix in="SourceAlpha" type="matrix" values="0 0 0 0 0 0 0 0 0 0 0 0 0 0 0 0 0 0 127 0" result="hardAlpha"/>
<feMorphology radius="5" operator="dilate" in="SourceAlpha" result="effect1_dropShadow_535_171"/>
<feOffset dy="4"/>
<feGaussianBlur stdDeviation="5"/>
<feComposite in2="hardAlpha" operator="out"/>
<feColorMatrix type="matrix" values="0 0 0 0 0 0 0 0 0 0 0 0 0 0 0 0 0 0 0.25 0"/>
<feBlend mode="normal" in2="BackgroundImageFix" result="effect1_dropShadow_535_171"/>
<feBlend mode="normal" in="SourceGraphic" in2="effect1_dropShadow_535_171" result="shape"/>
</filter>
<filter id="filter10_d_535_171" x="657" y="511" width="28" height="28" filterUnits="userSpaceOnUse" color-interpolation-filters="sRGB">
<feFlood flood-opacity="0" result="BackgroundImageFix"/>
<feColorMatrix in="SourceAlpha" type="matrix" values="0 0 0 0 0 0 0 0 0 0 0 0 0 0 0 0 0 0 127 0" result="hardAlpha"/>
<feOffset dy="4"/>
<feGaussianBlur stdDeviation="2"/>
<feComposite in2="hardAlpha" operator="out"/>
<feColorMatrix type="matrix" values="0 0 0 0 0 0 0 0 0 0 0 0 0 0 0 0 0 0 0.25 0"/>
<feBlend mode="normal" in2="BackgroundImageFix" result="effect1_dropShadow_535_171"/>
<feBlend mode="normal" in="SourceGraphic" in2="effect1_dropShadow_535_171" result="shape"/>
</filter>
<filter id="filter11_d_535_171" x="662" y="516" width="18" height="18" filterUnits="userSpaceOnUse" color-interpolation-filters="sRGB">
<feFlood flood-opacity="0" result="BackgroundImageFix"/>
<feColorMatrix in="SourceAlpha" type="matrix" values="0 0 0 0 0 0 0 0 0 0 0 0 0 0 0 0 0 0 127 0" result="hardAlpha"/>
<feOffset dy="4"/>
<feGaussianBlur stdDeviation="2"/>
<feComposite in2="hardAlpha" operator="out"/>
<feColorMatrix type="matrix" values="0 0 0 0 0 0 0 0 0 0 0 0 0 0 0 0 0 0 0.25 0"/>
<feBlend mode="normal" in2="BackgroundImageFix" result="effect1_dropShadow_535_171"/>
<feBlend mode="normal" in="SourceGraphic" in2="effect1_dropShadow_535_171" result="shape"/>
</filter>
<filter id="filter12_d_535_171" x="630" y="119" width="28" height="28" filterUnits="userSpaceOnUse" color-interpolation-filters="sRGB">
<feFlood flood-opacity="0" result="BackgroundImageFix"/>
<feColorMatrix in="SourceAlpha" type="matrix" values="0 0 0 0 0 0 0 0 0 0 0 0 0 0 0 0 0 0 127 0" result="hardAlpha"/>
<feOffset dy="4"/>
<feGaussianBlur stdDeviation="2"/>
<feComposite in2="hardAlpha" operator="out"/>
<feColorMatrix type="matrix" values="0 0 0 0 0 0 0 0 0 0 0 0 0 0 0 0 0 0 0.25 0"/>
<feBlend mode="normal" in2="BackgroundImageFix" result="effect1_dropShadow_535_171"/>
<feBlend mode="normal" in="SourceGraphic" in2="effect1_dropShadow_535_171" result="shape"/>
</filter>
<filter id="filter13_d_535_171" x="635" y="124" width="18" height="18" filterUnits="userSpaceOnUse" color-interpolation-filters="sRGB">
<feFlood flood-opacity="0" result="BackgroundImageFix"/>
<feColorMatrix in="SourceAlpha" type="matrix" values="0 0 0 0 0 0 0 0 0 0 0 0 0 0 0 0 0 0 127 0" result="hardAlpha"/>
<feOffset dy="4"/>
<feGaussianBlur stdDeviation="2"/>
<feComposite in2="hardAlpha" operator="out"/>
<feColorMatrix type="matrix" values="0 0 0 0 0 0 0 0 0 0 0 0 0 0 0 0 0 0 0.25 0"/>
<feBlend mode="normal" in2="BackgroundImageFix" result="effect1_dropShadow_535_171"/>
<feBlend mode="normal" in="SourceGraphic" in2="effect1_dropShadow_535_171" result="shape"/>
</filter>
<filter id="filter14_d_535_171" x="965" y="506" width="28" height="28" filterUnits="userSpaceOnUse" color-interpolation-filters="sRGB">
<feFlood flood-opacity="0" result="BackgroundImageFix"/>
<feColorMatrix in="SourceAlpha" type="matrix" values="0 0 0 0 0 0 0 0 0 0 0 0 0 0 0 0 0 0 127 0" result="hardAlpha"/>
<feOffset dy="4"/>
<feGaussianBlur stdDeviation="2"/>
<feComposite in2="hardAlpha" operator="out"/>
<feColorMatrix type="matrix" values="0 0 0 0 0 0 0 0 0 0 0 0 0 0 0 0 0 0 0.25 0"/>
<feBlend mode="normal" in2="BackgroundImageFix" result="effect1_dropShadow_535_171"/>
<feBlend mode="normal" in="SourceGraphic" in2="effect1_dropShadow_535_171" result="shape"/>
</filter>
<filter id="filter15_d_535_171" x="970" y="511" width="18" height="18" filterUnits="userSpaceOnUse" color-interpolation-filters="sRGB">
<feFlood flood-opacity="0" result="BackgroundImageFix"/>
<feColorMatrix in="SourceAlpha" type="matrix" values="0 0 0 0 0 0 0 0 0 0 0 0 0 0 0 0 0 0 127 0" result="hardAlpha"/>
<feOffset dy="4"/>
<feGaussianBlur stdDeviation="2"/>
<feComposite in2="hardAlpha" operator="out"/>
<feColorMatrix type="matrix" values="0 0 0 0 0 0 0 0 0 0 0 0 0 0 0 0 0 0 0.25 0"/>
<feBlend mode="normal" in2="BackgroundImageFix" result="effect1_dropShadow_535_171"/>
<feBlend mode="normal" in="SourceGraphic" in2="effect1_dropShadow_535_171" result="shape"/>
</filter>
<filter id="filter16_d_535_171" x="956" y="119" width="28" height="28" filterUnits="userSpaceOnUse" color-interpolation-filters="sRGB">
<feFlood flood-opacity="0" result="BackgroundImageFix"/>
<feColorMatrix in="SourceAlpha" type="matrix" values="0 0 0 0 0 0 0 0 0 0 0 0 0 0 0 0 0 0 127 0" result="hardAlpha"/>
<feOffset dy="4"/>
<feGaussianBlur stdDeviation="2"/>
<feComposite in2="hardAlpha" operator="out"/>
<feColorMatrix type="matrix" values="0 0 0 0 0 0 0 0 0 0 0 0 0 0 0 0 0 0 0.25 0"/>
<feBlend mode="normal" in2="BackgroundImageFix" result="effect1_dropShadow_535_171"/>
<feBlend mode="normal" in="SourceGraphic" in2="effect1_dropShadow_535_171" result="shape"/>
</filter>
<filter id="filter17_d_535_171" x="961" y="124" width="18" height="18" filterUnits="userSpaceOnUse" color-interpolation-filters="sRGB">
<feFlood flood-opacity="0" result="BackgroundImageFix"/>
<feColorMatrix in="SourceAlpha" type="matrix" values="0 0 0 0 0 0 0 0 0 0 0 0 0 0 0 0 0 0 127 0" result="hardAlpha"/>
<feOffset dy="4"/>
<feGaussianBlur stdDeviation="2"/>
<feComposite in2="hardAlpha" operator="out"/>
<feColorMatrix type="matrix" values="0 0 0 0 0 0 0 0 0 0 0 0 0 0 0 0 0 0 0.25 0"/>
<feBlend mode="normal" in2="BackgroundImageFix" result="effect1_dropShadow_535_171"/>
<feBlend mode="normal" in="SourceGraphic" in2="effect1_dropShadow_535_171" result="shape"/>
</filter>
<clipPath id="clip0_535_171">
<rect width="1646" height="561" fill="white"/>
</clipPath>
</defs>
</svg>
